<?xml version="1.0" encoding="UTF-8" standalone="no"?>
<svg
   xmlns:dc="http://purl.org/dc/elements/1.1/"
   xmlns:cc="http://creativecommons.org/ns#"
   xmlns:rdf="http://www.w3.org/1999/02/22-rdf-syntax-ns#"
   xmlns:svg="http://www.w3.org/2000/svg"
   xmlns="http://www.w3.org/2000/svg"
   xmlns:sodipodi="http://sodipodi.sourceforge.net/DTD/sodipodi-0.dtd"
   xmlns:inkscape="http://www.inkscape.org/namespaces/inkscape"
   viewBox="0 0 528 384"
   height="384"
   width="528"
   xml:space="preserve"
   id="svg2"
   version="1.1"
   sodipodi:docname="19025.svg"
   inkscape:export-filename="D:\Resultados PME\RESULTADOS PME\MATERIAL DE CLIENTES\RPME0011 - LAVA E LEVA (SÃO PAULO -- Vila Sabrina - SP)\SITE\img\p-exec.png"
   inkscape:export-xdpi="109.09091"
   inkscape:export-ydpi="109.09091"
   inkscape:version="0.92.4 (5da689c313, 2019-01-14)"><sodipodi:namedview
     pagecolor="#ffffff"
     bordercolor="#666666"
     borderopacity="1"
     objecttolerance="10"
     gridtolerance="10"
     guidetolerance="10"
     inkscape:pageopacity="0"
     inkscape:pageshadow="2"
     inkscape:window-width="1920"
     inkscape:window-height="1001"
     id="namedview94"
     showgrid="false"
     inkscape:pagecheckerboard="true"
     inkscape:zoom="1.2291667"
     inkscape:cx="346.28216"
     inkscape:cy="162.35881"
     inkscape:window-x="-9"
     inkscape:window-y="-9"
     inkscape:window-maximized="1"
     inkscape:current-layer="g12" /><metadata
     id="metadata8"><rdf:RDF><cc:Work
         rdf:about=""><dc:format>image/svg+xml</dc:format><dc:type
           rdf:resource="http://purl.org/dc/dcmitype/StillImage" /><dc:title></dc:title></cc:Work></rdf:RDF></metadata><defs
     id="defs6"><clipPath
       id="clipPath90"
       clipPathUnits="userSpaceOnUse"><path
         id="path88"
         d="m 998.168,1797.9 c -4.105,-4.57 -6.836,-11.3 -7.602,-18.81 C 979.547,1671 819.723,847.711 807.891,749.141 795.23,643.621 980.945,483.23 1027.38,466.34 c 46.43,-16.879 249.04,198.39 270.14,232.148 19.8,31.684 -166.26,963.632 -178.81,1078.772 -0.82,7.47 -3.57,14.16 -7.68,18.67 l -40.91,50.39 c -10.33,7.66 -24.47,7.62 -34.74,-0.12 z" /></clipPath><linearGradient
       id="linearGradient100"
       spreadMethod="pad"
       gradientTransform="matrix(0,-1860.71,-1860.71,0,1053.13,1781.98)"
       gradientUnits="userSpaceOnUse"
       y2="0"
       x2="1"
       y1="0"
       x1="0"><stop
         id="stop92"
         offset="0"
         style="stop-opacity:1;stop-color:#100f0d" /><stop
         id="stop94"
         offset="0.370968"
         style="stop-opacity:1;stop-color:#333232" /><stop
         id="stop96"
         offset="0.548387"
         style="stop-opacity:1;stop-color:#333232" /><stop
         id="stop98"
         offset="1"
         style="stop-opacity:1;stop-color:#100f0d" /></linearGradient><clipPath
       id="clipPath110"
       clipPathUnits="userSpaceOnUse"><path
         id="path108"
         d="m 884.285,1978.67 103.098,-190.26 c 2.578,-10.22 9.359,-16.74 16.727,-16.09 21.08,1.87 65.12,4.65 100.23,-0.65 7.75,-1.16 15,5.72 17.53,16.6 l 96.85,188.13 c 5.02,14.6 -4.35,30.17 -19.59,32.57 -50.4,7.94 -161.63,20.29 -294.661,2.99 -15.879,-2.07 -25.778,-18.29 -20.184,-33.29 z" /></clipPath><linearGradient
       id="linearGradient120"
       spreadMethod="pad"
       gradientTransform="matrix(0,-393.88,-393.88,0,1051.4,2070.21)"
       gradientUnits="userSpaceOnUse"
       y2="0"
       x2="1"
       y1="0"
       x1="0"><stop
         id="stop112"
         offset="0"
         style="stop-opacity:1;stop-color:#100f0d" /><stop
         id="stop114"
         offset="0.370968"
         style="stop-opacity:1;stop-color:#333232" /><stop
         id="stop116"
         offset="0.548387"
         style="stop-opacity:1;stop-color:#333232" /><stop
         id="stop118"
         offset="1"
         style="stop-opacity:1;stop-color:#100f0d" /></linearGradient><clipPath
       id="clipPath130"
       clipPathUnits="userSpaceOnUse"><path
         id="path128"
         d="m 1065.32,2030.89 c 39.05,-12.25 -177.855,-140.01 -219.48,-208.12 -41.625,-68.11 -64.332,-30.27 -94.606,30.27 -30.269,60.55 -166.5,351.92 -211.91,438.96 -45.402,87.03 -7.562,83.25 52.981,18.92 60.547,-64.33 280.023,-219.48 473.015,-280.03 z" /></clipPath><linearGradient
       id="linearGradient138"
       spreadMethod="pad"
       gradientTransform="matrix(188.976,332.598,332.598,-188.976,648.058,1929.57)"
       gradientUnits="userSpaceOnUse"
       y2="0"
       x2="1"
       y1="0"
       x1="0"><stop
         id="stop132"
         offset="0"
         style="stop-opacity:1;stop-color:#ebebe9" /><stop
         id="stop134"
         offset="0.291045"
         style="stop-opacity:1;stop-color:#ebebe9" /><stop
         id="stop136"
         offset="1"
         style="stop-opacity:1;stop-color:#9f9f9e" /></linearGradient><clipPath
       id="clipPath148"
       clipPathUnits="userSpaceOnUse"><path
         id="path146"
         d="m 1056.97,2030.89 c -39.06,-12.25 177.85,-140.01 219.47,-208.12 41.63,-68.11 64.34,-30.27 94.61,30.27 30.27,60.55 166.5,351.92 211.91,438.96 45.4,87.03 7.57,83.25 -52.98,18.92 -60.55,-64.33 -280.02,-219.48 -473.01,-280.03 z" /></clipPath><linearGradient
       id="linearGradient156"
       spreadMethod="pad"
       gradientTransform="matrix(-136.063,351.496,351.496,136.063,1455.63,1856.91)"
       gradientUnits="userSpaceOnUse"
       y2="0"
       x2="1"
       y1="0"
       x1="0"><stop
         id="stop150"
         offset="0"
         style="stop-opacity:1;stop-color:#ebebe9" /><stop
         id="stop152"
         offset="0.291045"
         style="stop-opacity:1;stop-color:#ebebe9" /><stop
         id="stop154"
         offset="1"
         style="stop-opacity:1;stop-color:#9f9f9e" /></linearGradient></defs><g
     transform="matrix(1.3333333,0,0,-1.3333333,0,384)"
     id="g10"><g
       transform="scale(0.1)"
       id="g12"><path
         id="path14"
         style="fill:#f5f5f5;fill-opacity:1;fill-rule:nonzero;stroke:none"
         d="M 0,0 H 3960 V 2880 H 0 Z"
         inkscape:connector-curvature="0" /><path
         id="path16"
         style="fill:#a971b0;fill-opacity:1;fill-rule:nonzero;stroke:none"
         d="m 1682.36,2268.74 v -20 H 3365.99 V 631.262 H 1415.91 v -20 H 3385.99 V 2268.74 H 1682.36"
         inkscape:connector-curvature="0" /><path
         id="path18"
         style="fill:#f5f5f5;fill-opacity:1;fill-rule:nonzero;stroke:none"
         d="m 824.148,256.281 c -2.171,0 -4.14,0.309 -5.886,0.949 -46.426,16.879 -232.149,177.282 -219.489,282.801 11.832,98.571 171.657,921.859 182.676,1029.939 l 0.215,1.26 c -1.434,2.31 -2.621,4.99 -3.398,8.07 l -59.618,110.02 c 1.301,1.27 2.629,2.67 3.973,4.19 0.914,0.79 1.836,1.64 2.77,2.55 l 59.625,-110.02 c 0.769,-3.07 1.961,-5.75 3.394,-8.06 l -0.211,-1.27 C 777.176,1468.64 617.348,645.352 605.523,546.781 592.855,441.25 778.578,280.852 825.012,263.969 c 1.742,-0.629 3.715,-0.938 5.883,-0.938 31.425,0 105.406,64.239 167.402,125.91 C 935.02,325.309 856.723,256.281 824.148,256.281 M 596.258,1577.34 c -19.375,0 -35.289,28.89 -54.133,66.58 -30.273,60.55 -166.508,351.93 -211.91,438.96 -22.938,43.96 -24.637,64.76 -12.895,66.28 -2.039,-9.43 3.621,-28.84 19.637,-59.53 45.41,-87.04 181.637,-378.41 211.91,-438.96 18.848,-37.69 34.766,-66.59 54.137,-66.59 5.773,0 11.855,2.57 18.41,8.23 -9.199,-10.4 -17.453,-14.97 -25.156,-14.97"
         inkscape:connector-curvature="0" /><path
         id="path20"
         style="fill:#f5f5f5;fill-opacity:1;fill-rule:nonzero;stroke:none"
         d="m 830.895,263.031 c -2.168,0 -4.141,0.309 -5.883,0.938 -46.434,16.883 -232.157,177.281 -219.489,282.812 11.825,98.571 171.653,921.859 182.676,1029.929 l 0.211,1.27 c -1.433,2.31 -2.625,4.99 -3.394,8.06 l -59.625,110.02 c 1.3,1.28 2.617,2.67 3.957,4.18 0.922,0.8 1.851,1.65 2.793,2.57 l 59.617,-110.02 c 0.773,-3.07 1.961,-5.75 3.398,-8.06 l -0.215,-1.27 C 783.922,1475.38 624.098,652.09 612.266,553.52 599.605,448 785.324,287.602 831.754,270.719 c 1.746,-0.637 3.715,-0.938 5.883,-0.938 31.383,0 105.203,64.059 167.143,125.649 -2.14,-2.16 -4.31,-4.328 -6.483,-6.489 C 936.301,327.27 862.32,263.031 830.895,263.031 M 603.004,1584.08 c -19.371,0 -35.289,28.9 -54.137,66.59 -30.273,60.55 -166.5,351.92 -211.91,438.96 -16.016,30.69 -21.676,50.1 -19.637,59.53 0.883,4.07 3.203,6.28 6.75,6.74 -2.043,-9.43 3.618,-28.83 19.637,-59.53 45.402,-87.03 181.633,-378.41 211.906,-438.95 18.848,-37.7 34.762,-66.59 54.137,-66.59 5.781,0 11.871,2.57 18.438,8.25 -2.317,-2.62 -4.571,-4.87 -6.774,-6.77 -6.555,-5.66 -12.637,-8.23 -18.41,-8.23"
         inkscape:connector-curvature="0" /><path
         id="path22"
         style="fill:#fefefe;fill-opacity:1;fill-rule:nonzero;stroke:none"
         d="m 837.637,269.781 c -2.168,0 -4.137,0.301 -5.883,0.938 C 785.324,287.602 599.605,448 612.266,553.52 c 11.832,98.57 171.656,921.86 182.675,1029.94 l 0.215,1.27 c -1.437,2.31 -2.625,4.99 -3.398,8.06 l -59.617,110.02 c 1.3,1.28 2.629,2.67 3.972,4.19 0.91,0.79 1.836,1.64 2.77,2.56 l 59.621,-110.03 c 0.773,-3.07 1.965,-5.75 3.398,-8.06 l -0.214,-1.27 C 790.668,1482.13 630.84,658.84 619.012,560.27 606.348,454.738 792.07,294.34 838.5,277.461 c 1.746,-0.629 3.719,-0.941 5.887,-0.941 31.426,0 105.406,64.242 167.403,125.91 -2.32,-2.328 -4.66,-4.66 -7.01,-7 C 942.84,333.84 869.02,269.781 837.637,269.781 M 609.75,1590.83 c -19.375,0 -35.289,28.89 -54.137,66.59 -30.273,60.54 -166.504,351.92 -211.906,438.95 -16.019,30.7 -21.68,50.1 -19.637,59.53 0.879,4.07 3.2,6.29 6.743,6.74 -2.04,-9.43 3.621,-28.82 19.636,-59.52 45.41,-87.04 181.637,-378.41 211.91,-438.96 18.848,-37.69 34.762,-66.59 54.137,-66.59 5.774,0 11.856,2.57 18.41,8.23 -2.297,-2.6 -4.535,-4.83 -6.718,-6.72 -6.567,-5.68 -12.657,-8.25 -18.438,-8.25"
         inkscape:connector-curvature="0" /><path
         id="path24"
         style="fill:#fdfdfe;fill-opacity:1;fill-rule:nonzero;stroke:none"
         d="m 844.387,276.52 c -2.168,0 -4.141,0.312 -5.887,0.941 -46.43,16.879 -232.152,177.277 -219.488,282.809 11.828,98.57 171.656,921.86 182.676,1029.93 l 0.214,1.27 c -1.433,2.31 -2.625,4.99 -3.398,8.06 l -59.621,110.03 c 1.301,1.27 2.621,2.66 3.965,4.18 0.918,0.79 1.843,1.65 2.781,2.56 l 59.621,-110.02 c 0.773,-3.07 1.961,-5.75 3.398,-8.06 l -0.214,-1.27 C 797.41,1488.87 637.586,665.582 625.758,567.012 613.094,461.488 798.816,301.09 845.242,284.211 c 1.746,-0.641 3.719,-0.941 5.887,-0.941 31.383,0 105.203,64.062 167.141,125.652 -2.14,-2.16 -4.31,-4.32 -6.48,-6.492 C 949.793,340.762 875.813,276.52 844.387,276.52 M 616.496,1597.57 c -19.375,0 -35.289,28.9 -54.137,66.59 -30.273,60.55 -166.5,351.92 -211.91,438.96 -16.015,30.7 -21.676,50.09 -19.636,59.52 0.882,4.08 3.203,6.29 6.746,6.75 -2.039,-9.43 3.621,-28.83 19.636,-59.53 45.407,-87.03 181.637,-378.41 211.91,-438.95 18.848,-37.7 34.762,-66.59 54.133,-66.59 5.782,0 11.871,2.57 18.442,8.25 -2.317,-2.62 -4.575,-4.87 -6.774,-6.77 -6.554,-5.66 -12.636,-8.23 -18.41,-8.23 m 530.564,9.44 c -0.07,0.35 -0.14,0.76 -0.2,1.11 1.3,0.83 2.6,1.78 3.88,2.85 -1.22,-1.42 -2.45,-2.74 -3.68,-3.96"
         inkscape:connector-curvature="0" /><path
         id="path26"
         style="fill:#fcfcfd;fill-opacity:1;fill-rule:nonzero;stroke:none"
         d="m 851.129,283.27 c -2.168,0 -4.141,0.3 -5.887,0.941 -46.426,16.879 -232.148,177.277 -219.484,282.801 11.828,98.57 171.652,921.858 182.676,1029.938 l 0.214,1.27 c -1.437,2.31 -2.625,4.99 -3.398,8.06 l -59.621,110.02 c 1.305,1.28 2.629,2.67 3.973,4.19 0.914,0.79 1.839,1.64 2.773,2.56 l 59.621,-110.02 c 0.774,-3.08 1.965,-5.76 3.399,-8.07 l -0.215,-1.26 C 804.16,1495.62 644.328,672.332 632.504,573.762 619.84,468.23 805.563,307.84 851.992,290.961 c 1.746,-0.641 3.719,-0.949 5.887,-0.949 31.426,0 105.406,64.25 167.401,125.91 -2.32,-2.332 -4.65,-4.66 -7.01,-7 C 956.332,347.332 882.512,283.27 851.129,283.27 M 623.238,1604.32 c -19.371,0 -35.285,28.89 -54.133,66.59 -30.273,60.54 -166.503,351.92 -211.91,438.95 -16.015,30.7 -21.675,50.1 -19.636,59.53 0.882,4.08 3.203,6.29 6.746,6.75 -2.043,-9.43 3.617,-28.83 19.636,-59.53 45.411,-87.04 181.633,-378.41 211.907,-438.96 18.851,-37.69 34.765,-66.59 54.14,-66.59 5.77,0 11.852,2.57 18.407,8.23 -2.293,-2.6 -4.532,-4.83 -6.715,-6.72 -6.571,-5.68 -12.66,-8.25 -18.442,-8.25 m 523.622,3.8 c -0.22,1.18 -0.43,2.34 -0.64,3.51 3.86,0.95 7.6,3.03 11.27,6.08 -2.23,-2.59 -4.48,-4.85 -6.75,-6.74 -1.28,-1.07 -2.58,-2.02 -3.88,-2.85"
         inkscape:connector-curvature="0" /><path
         id="path28"
         style="fill:#fafbfb;fill-opacity:1;fill-rule:nonzero;stroke:none"
         d="m 857.879,290.012 c -2.168,0 -4.141,0.308 -5.887,0.949 C 805.563,307.84 619.84,468.23 632.504,573.762 644.328,672.332 804.16,1495.62 815.18,1603.7 l 0.215,1.26 c -1.434,2.31 -2.625,4.99 -3.399,8.07 l -59.621,110.02 c 1.301,1.27 2.621,2.66 3.961,4.18 0.922,0.79 1.848,1.65 2.785,2.56 l 59.617,-110.02 c 0.778,-3.07 1.965,-5.75 3.399,-8.06 l -0.211,-1.27 C 810.902,1502.36 651.078,679.07 639.246,580.5 626.586,474.98 812.309,314.582 858.734,297.699 c 1.746,-0.64 3.715,-0.937 5.887,-0.937 31.383,0 105.215,64.066 167.159,125.66 -2.15,-2.16 -4.32,-4.332 -6.5,-6.5 -61.995,-61.66 -135.975,-125.91 -167.401,-125.91 M 629.988,1611.06 c -19.375,0 -35.289,28.9 -54.14,66.59 -30.274,60.55 -166.496,351.92 -211.907,438.96 -16.019,30.7 -21.679,50.1 -19.636,59.53 0.883,4.07 3.203,6.29 6.746,6.74 -2.039,-9.42 3.621,-28.83 19.637,-59.53 45.406,-87.03 181.636,-378.4 211.91,-438.95 18.843,-37.7 34.757,-66.59 54.132,-66.59 5.782,0 11.872,2.57 18.442,8.25 -2.317,-2.62 -4.574,-4.87 -6.777,-6.77 -6.555,-5.66 -12.637,-8.23 -18.407,-8.23 m 516.232,0.57 c -0.38,2.16 -0.77,4.32 -1.15,6.44 1.08,-0.18 2.14,-0.26 3.2,-0.26 5.56,0 10.83,2.38 15.97,6.65 -2.24,-2.59 -4.48,-4.85 -6.75,-6.75 -3.67,-3.05 -7.41,-5.13 -11.27,-6.08"
         inkscape:connector-curvature="0" /><path
         id="path30"
         style="fill:#fafafa;fill-opacity:1;fill-rule:nonzero;stroke:none"
         d="m 864.621,296.762 c -2.172,0 -4.141,0.297 -5.887,0.937 -46.425,16.883 -232.148,177.281 -219.488,282.801 11.832,98.57 171.656,921.86 182.68,1029.94 l 0.211,1.27 c -1.434,2.31 -2.621,4.99 -3.399,8.06 l -59.617,110.02 c 1.305,1.28 2.625,2.67 3.969,4.19 0.918,0.8 1.84,1.65 2.777,2.56 l 59.621,-110.02 c 0.774,-3.07 1.961,-5.76 3.399,-8.07 l -0.215,-1.26 C 817.652,1509.11 657.82,685.82 645.996,587.25 633.336,481.719 819.055,321.332 865.484,304.449 c 1.746,-0.64 3.715,-0.937 5.887,-0.937 31.422,0 105.395,64.226 167.379,125.886 -2.3,-2.32 -4.63,-4.648 -6.97,-6.976 C 969.836,360.828 896.004,296.762 864.621,296.762 M 1148.27,1617.81 c -1.06,0 -2.12,0.08 -3.2,0.26 -0.6,3.35 -1.19,6.62 -1.77,9.9 4.06,-2.33 7.96,-3.42 11.71,-3.42 5.56,0 10.83,2.38 15.97,6.66 -2.23,-2.59 -4.48,-4.86 -6.74,-6.75 -5.14,-4.27 -10.41,-6.65 -15.97,-6.65 m -511.54,0 c -19.375,0 -35.289,28.89 -54.132,66.59 -30.274,60.55 -166.504,351.92 -211.91,438.95 -16.016,30.7 -21.676,50.11 -19.637,59.53 0.883,4.08 3.199,6.29 6.742,6.75 -2.039,-9.43 3.621,-28.83 19.641,-59.53 45.406,-87.03 181.632,-378.41 211.906,-438.95 18.848,-37.7 34.765,-66.6 54.14,-66.6 5.77,0 11.852,2.57 18.407,8.23 -2.293,-2.59 -4.535,-4.83 -6.715,-6.72 -6.57,-5.68 -12.66,-8.25 -18.442,-8.25"
         inkscape:connector-curvature="0" /><path
         id="path32"
         style="fill:#f8f8f8;fill-opacity:1;fill-rule:nonzero;stroke:none"
         d="m 871.371,303.512 c -2.172,0 -4.141,0.297 -5.887,0.937 -46.429,16.883 -232.148,177.27 -219.488,282.801 11.824,98.57 171.656,921.86 182.676,1029.94 l 0.215,1.26 c -1.438,2.31 -2.625,5 -3.399,8.07 l -59.621,110.02 c 1.301,1.27 2.621,2.66 3.961,4.18 0.918,0.79 1.848,1.65 2.785,2.56 l 59.617,-110.02 c 0.778,-3.07 1.965,-5.75 3.399,-8.06 l -0.215,-1.27 C 824.395,1515.85 664.57,692.559 652.738,593.988 640.078,488.469 825.801,328.082 872.23,311.191 c 1.747,-0.632 3.715,-0.941 5.887,-0.941 31.371,0 105.184,64.051 167.113,125.629 -2.14,-2.149 -4.3,-4.32 -6.48,-6.481 C 976.766,367.738 902.793,303.512 871.371,303.512 M 1155.01,1624.55 c -3.75,0 -7.65,1.09 -11.71,3.42 -0.85,4.71 -1.67,9.32 -2.48,13.87 7.53,-7.28 14.43,-10.54 20.94,-10.54 5.56,0 10.83,2.38 15.97,6.66 -2.24,-2.6 -4.48,-4.86 -6.75,-6.75 -5.14,-4.28 -10.41,-6.66 -15.97,-6.66 m -511.53,0 c -19.375,0 -35.292,28.9 -54.14,66.6 -30.274,60.54 -166.5,351.92 -211.906,438.95 -16.02,30.7 -21.68,50.1 -19.641,59.53 0.883,4.07 3.203,6.29 6.75,6.75 -2.043,-9.43 3.617,-28.83 19.637,-59.54 45.406,-87.03 181.636,-378.4 211.91,-438.95 18.848,-37.69 34.762,-66.59 54.133,-66.59 5.781,0 11.871,2.57 18.437,8.25 -2.316,-2.62 -4.57,-4.87 -6.773,-6.77 -6.555,-5.66 -12.637,-8.23 -18.407,-8.23"
         inkscape:connector-curvature="0" /><path
         id="path34"
         style="fill:#f7f7f7;fill-opacity:1;fill-rule:nonzero;stroke:none"
         d="m 878.117,310.25 c -2.172,0 -4.14,0.309 -5.887,0.941 -46.429,16.891 -232.152,177.278 -219.492,282.797 11.832,98.571 171.657,921.862 182.676,1029.942 l 0.215,1.27 c -1.434,2.31 -2.621,4.99 -3.399,8.06 l -59.617,110.02 c 1.301,1.28 2.625,2.68 3.969,4.19 0.918,0.8 1.84,1.65 2.777,2.56 l 59.621,-110.02 c 0.77,-3.07 1.961,-5.76 3.399,-8.07 l -0.215,-1.26 C 831.141,1522.6 671.313,699.309 659.488,600.738 646.824,495.219 832.543,334.82 878.977,317.941 c 1.742,-0.64 3.714,-0.941 5.882,-0.941 31.426,0 105.422,64.25 167.411,125.922 -2.32,-2.34 -4.67,-4.692 -7.04,-7.043 C 983.301,374.301 909.488,310.25 878.117,310.25 M 1161.76,1631.3 c -6.51,0 -13.41,3.26 -20.94,10.54 -1.1,6.24 -2.19,12.38 -3.23,18.3 11.57,-15.47 21.64,-22.09 30.92,-22.09 5.55,0 10.82,2.37 15.96,6.65 -2.23,-2.59 -4.47,-4.85 -6.74,-6.74 -5.14,-4.28 -10.41,-6.66 -15.97,-6.66 m -511.537,0 c -19.371,0 -35.285,28.9 -54.133,66.59 -30.274,60.55 -166.504,351.92 -211.91,438.95 -16.02,30.71 -21.68,50.11 -19.637,59.54 0.883,4.07 3.199,6.28 6.742,6.74 -2.043,-9.43 3.621,-28.83 19.637,-59.53 45.41,-87.03 181.637,-378.41 211.91,-438.95 18.848,-37.7 34.766,-66.59 54.137,-66.59 5.773,0 11.855,2.56 18.41,8.22 -2.297,-2.6 -4.531,-4.83 -6.719,-6.72 -6.566,-5.68 -12.656,-8.25 -18.437,-8.25"
         inkscape:connector-curvature="0" /><path
         id="path36"
         style="fill:#f6f6f7;fill-opacity:1;fill-rule:nonzero;stroke:none"
         d="m 884.859,317 c -2.168,0 -4.14,0.301 -5.882,0.941 -46.434,16.879 -232.153,177.278 -219.489,282.797 11.825,98.571 171.653,921.862 182.676,1029.942 l 0.215,1.26 c -1.438,2.31 -2.629,5 -3.399,8.07 l -59.621,110.02 c 1.301,1.27 2.621,2.67 3.961,4.18 0.918,0.8 1.844,1.65 2.782,2.57 l 59.621,-110.03 c 0.777,-3.07 1.961,-5.75 3.398,-8.06 l -0.215,-1.26 C 837.887,1529.35 678.063,706.051 666.23,607.48 653.57,501.961 839.293,341.57 885.723,324.68 c 1.746,-0.629 3.715,-0.942 5.882,-0.942 31.375,0 105.188,64.051 167.125,125.633 -2.14,-2.141 -4.29,-4.289 -6.46,-6.449 C 990.281,381.25 916.285,317 884.859,317 m 283.651,1321.05 c -9.28,0 -19.35,6.62 -30.92,22.09 -1.4,7.92 -2.73,15.55 -4,22.88 0.41,-0.64 0.81,-1.28 1.2,-1.91 15.7,-25.7 28.72,-36.31 40.46,-36.32 5.56,0 10.83,2.38 15.97,6.66 -2.23,-2.6 -4.48,-4.86 -6.75,-6.75 -5.14,-4.28 -10.41,-6.65 -15.96,-6.65 m -511.541,0 c -19.371,0 -35.289,28.89 -54.137,66.59 -30.273,60.54 -166.5,351.92 -211.91,438.95 -16.016,30.7 -21.68,50.1 -19.637,59.53 0.883,4.08 3.203,6.29 6.75,6.75 -2.043,-9.43 3.617,-28.83 19.637,-59.53 45.402,-87.04 181.633,-378.41 211.906,-438.95 18.852,-37.7 34.766,-66.6 54.137,-66.6 5.781,0 11.867,2.57 18.437,8.25 -2.316,-2.62 -4.57,-4.87 -6.773,-6.77 -6.555,-5.66 -12.637,-8.22 -18.41,-8.22"
         inkscape:connector-curvature="0" /><path
         id="path38"
         style="fill:#f4f4f4;fill-opacity:1;fill-rule:nonzero;stroke:none"
         d="m 891.605,323.738 c -2.167,0 -4.136,0.313 -5.882,0.942 -46.43,16.89 -232.153,177.281 -219.493,282.8 11.833,98.571 171.657,921.87 182.676,1029.95 l 0.215,1.26 c -1.437,2.31 -2.621,4.99 -3.398,8.06 l -59.621,110.03 c 1.304,1.27 2.628,2.67 3.972,4.19 0.914,0.79 1.84,1.64 2.774,2.55 l 59.621,-110.02 c 0.773,-3.07 1.965,-5.76 3.398,-8.07 l -0.215,-1.26 C 844.633,1536.09 684.805,712.801 672.977,614.23 660.316,508.711 846.035,348.309 892.465,331.43 c 1.746,-0.641 3.719,-0.942 5.887,-0.942 31.414,0 105.348,64.192 167.328,125.832 -2.3,-2.308 -4.62,-4.621 -6.95,-6.949 C 996.793,387.789 922.98,323.738 891.605,323.738 M 1175.25,1644.79 c -11.74,0.01 -24.76,10.62 -40.46,36.32 -0.39,0.63 -0.79,1.27 -1.2,1.91 -1.23,7.05 -2.39,13.8 -3.49,20.26 4.6,-5.4 8.46,-10.57 11.43,-15.42 15.71,-25.71 28.73,-36.32 40.47,-36.32 5.55,0 10.82,2.37 15.96,6.65 -2.23,-2.59 -4.47,-4.85 -6.74,-6.74 -5.14,-4.28 -10.41,-6.66 -15.97,-6.66 m -511.535,0 c -19.371,0 -35.285,28.9 -54.137,66.6 -30.273,60.54 -166.504,351.91 -211.906,438.95 -16.02,30.7 -21.68,50.1 -19.637,59.53 0.883,4.07 3.199,6.28 6.742,6.74 -2.043,-9.43 3.621,-28.83 19.637,-59.52 45.41,-87.04 181.637,-378.41 211.91,-438.96 18.848,-37.7 34.766,-66.59 54.137,-66.59 5.773,0 11.852,2.56 18.41,8.22 -2.297,-2.59 -4.535,-4.83 -6.719,-6.72 -6.57,-5.68 -12.656,-8.25 -18.437,-8.25"
         inkscape:connector-curvature="0" /><path
         id="path40"
         style="fill:#f4f3f3;fill-opacity:1;fill-rule:nonzero;stroke:none"
         d="m 898.352,330.488 c -2.168,0 -4.141,0.301 -5.887,0.942 -46.43,16.879 -232.149,177.281 -219.488,282.8 11.828,98.571 171.656,921.86 182.675,1029.94 l 0.215,1.26 c -1.433,2.31 -2.625,5 -3.398,8.07 l -59.621,110.02 c 1.304,1.28 2.629,2.67 3.972,4.19 0.914,0.8 1.836,1.64 2.774,2.56 l 59.621,-110.03 c 0.773,-3.07 1.961,-5.75 3.394,-8.06 l -0.211,-1.26 C 851.379,1542.84 691.551,719.551 679.723,620.98 667.059,515.449 852.781,355.059 899.215,338.172 c 1.746,-0.633 3.715,-0.942 5.883,-0.942 31.39,0 105.262,64.122 167.222,125.731 -2.2,-2.211 -4.41,-4.422 -6.64,-6.641 C 1003.7,394.68 929.766,330.488 898.352,330.488 M 1182,1651.54 c -11.74,0 -24.76,10.61 -40.47,36.32 -2.97,4.85 -6.83,10.02 -11.43,15.42 -1.03,6.07 -2.01,11.87 -2.92,17.38 8.97,-9.32 16.23,-18.09 21.1,-26.06 15.7,-25.7 28.72,-36.31 40.46,-36.32 5.56,0 10.83,2.38 15.97,6.66 -2.23,-2.6 -4.48,-4.86 -6.75,-6.75 -5.14,-4.28 -10.41,-6.65 -15.96,-6.65 m -511.539,0 c -19.371,0 -35.289,28.89 -54.137,66.59 -30.273,60.55 -166.5,351.92 -211.91,438.96 -16.016,30.69 -21.68,50.09 -19.637,59.52 0.883,4.08 3.203,6.29 6.746,6.75 -2.043,-9.43 3.618,-28.82 19.637,-59.53 45.406,-87.03 181.637,-378.41 211.91,-438.95 18.852,-37.7 34.762,-66.6 54.137,-66.6 5.781,0 11.867,2.57 18.434,8.25 -2.317,-2.62 -4.567,-4.86 -6.77,-6.77 -6.558,-5.66 -12.637,-8.22 -18.41,-8.22"
         inkscape:connector-curvature="0" /><path
         id="path42"
         style="fill:#f2f2f2;fill-opacity:1;fill-rule:nonzero;stroke:none"
         d="m 905.098,337.23 c -2.168,0 -4.137,0.309 -5.883,0.942 -46.434,16.887 -232.156,177.277 -219.492,282.808 11.828,98.571 171.656,921.86 182.675,1029.94 l 0.211,1.26 c -1.433,2.31 -2.621,4.99 -3.394,8.06 l -59.621,110.03 c 1.301,1.27 2.621,2.66 3.961,4.18 0.918,0.79 1.847,1.65 2.785,2.56 l 59.621,-110.02 c 0.777,-3.07 1.965,-5.76 3.398,-8.07 l -0.214,-1.26 C 858.125,1549.58 698.297,726.289 686.469,627.719 c -12.66,-105.52 173.058,-265.91 219.488,-282.797 1.746,-0.633 3.719,-0.942 5.887,-0.942 31.41,0 105.346,64.192 167.326,125.829 -2.27,-2.27 -4.55,-4.559 -6.85,-6.848 C 1010.36,401.352 936.488,337.23 905.098,337.23 m 283.642,1321.05 c -11.74,0.01 -24.76,10.62 -40.46,36.32 -4.87,7.97 -12.13,16.74 -21.1,26.06 -0.94,5.66 -1.82,11.05 -2.63,16.09 13.31,-12.8 24.01,-24.82 30.47,-35.4 15.71,-25.71 28.73,-36.32 40.47,-36.32 5.56,0 10.82,2.37 15.96,6.65 -2.23,-2.59 -4.47,-4.85 -6.74,-6.74 -5.14,-4.28 -10.41,-6.66 -15.97,-6.66 m -511.533,0 c -19.375,0 -35.285,28.9 -54.137,66.6 -30.273,60.54 -166.504,351.92 -211.91,438.95 -16.019,30.71 -21.68,50.1 -19.637,59.53 0.883,4.07 3.204,6.28 6.747,6.74 -2.043,-9.43 3.617,-28.83 19.636,-59.53 45.41,-87.03 181.633,-378.4 211.907,-438.95 18.847,-37.69 34.765,-66.59 54.14,-66.59 5.774,0 11.852,2.56 18.406,8.22 -2.293,-2.59 -4.535,-4.83 -6.718,-6.72 -6.567,-5.68 -12.653,-8.25 -18.434,-8.25"
         inkscape:connector-curvature="0" /><path
         id="path44"
         style="fill:#f0f0ef;fill-opacity:1;fill-rule:nonzero;stroke:none"
         d="m 911.844,343.98 c -2.168,0 -4.141,0.309 -5.887,0.942 -46.43,16.887 -232.148,177.277 -219.488,282.797 11.828,98.57 171.656,921.861 182.676,1029.941 l 0.214,1.26 c -1.433,2.31 -2.621,5 -3.398,8.07 l -59.621,110.02 c 1.305,1.28 2.629,2.67 3.969,4.19 0.918,0.8 1.839,1.65 2.777,2.56 l 59.617,-110.03 c 0.777,-3.07 1.965,-5.75 3.399,-8.06 l -0.211,-1.26 C 864.867,1556.33 705.043,733.039 693.215,634.469 680.551,528.941 866.273,368.551 912.703,351.66 c 1.746,-0.629 3.719,-0.941 5.887,-0.941 31.371,0 105.15,64.031 167.08,125.59 -2.15,-2.161 -4.32,-4.329 -6.5,-6.5 C 1017.19,408.172 943.254,343.98 911.844,343.98 m 283.646,1321.05 c -11.74,0 -24.76,10.61 -40.47,36.32 -6.46,10.58 -17.16,22.6 -30.47,35.4 -0.89,5.5 -1.68,10.59 -2.4,15.3 17.55,-16 31.73,-31.05 39.62,-43.95 15.7,-25.71 28.72,-36.32 40.46,-36.33 5.56,0 10.83,2.38 15.97,6.66 -2.23,-2.59 -4.48,-4.86 -6.75,-6.75 -5.14,-4.28 -10.4,-6.65 -15.96,-6.65 m -511.537,0 c -19.375,0 -35.293,28.9 -54.14,66.59 -30.274,60.55 -166.497,351.92 -211.907,438.95 -16.019,30.7 -21.679,50.1 -19.636,59.53 0.878,4.08 3.203,6.29 6.746,6.75 -2.043,-9.42 3.617,-28.82 19.636,-59.53 45.411,-87.03 181.637,-378.41 211.911,-438.95 18.847,-37.7 34.761,-66.6 54.132,-66.6 5.782,0 11.875,2.58 18.442,8.26 -2.317,-2.62 -4.574,-4.88 -6.778,-6.78 -6.554,-5.66 -12.632,-8.22 -18.406,-8.22"
         inkscape:connector-curvature="0" /><path
         id="path46"
         style="fill:#efefee;fill-opacity:1;fill-rule:nonzero;stroke:none"
         d="m 918.59,350.719 c -2.168,0 -4.141,0.312 -5.887,0.941 -46.43,16.891 -232.152,177.281 -219.488,282.809 11.828,98.57 171.652,921.861 182.676,1029.941 l 0.211,1.26 c -1.434,2.31 -2.622,4.99 -3.399,8.06 l -59.617,110.03 c 1.297,1.27 2.617,2.66 3.953,4.17 0.922,0.8 1.852,1.65 2.793,2.57 l 59.621,-110.02 c 0.777,-3.07 1.961,-5.75 3.399,-8.06 l -0.215,-1.26 C 871.617,1563.08 711.785,739.781 699.961,641.219 687.301,535.691 873.02,375.301 919.449,358.41 c 1.746,-0.629 3.715,-0.941 5.887,-0.941 31.434,0 105.454,64.281 167.454,125.961 -2.35,-2.36 -4.73,-4.739 -7.12,-7.121 -61.93,-61.559 -135.709,-125.59 -167.08,-125.59 m 283.64,1321.051 c -11.74,0.01 -24.76,10.62 -40.46,36.33 -7.89,12.9 -22.07,27.95 -39.62,43.95 -0.83,5.45 -1.54,10.36 -2.13,14.67 21.61,-18.94 39.32,-36.86 48.5,-51.88 15.7,-25.71 28.72,-36.32 40.46,-36.32 5.56,0 10.83,2.37 15.96,6.65 -2.23,-2.59 -4.47,-4.85 -6.74,-6.74 -5.14,-4.28 -10.41,-6.66 -15.97,-6.66 m -511.535,0 c -19.371,0 -35.285,28.9 -54.132,66.6 -30.274,60.54 -166.5,351.92 -211.911,438.95 -16.019,30.71 -21.679,50.11 -19.636,59.53 0.882,4.07 3.203,6.29 6.742,6.74 -2.039,-9.43 3.621,-28.82 19.637,-59.52 45.41,-87.04 181.636,-378.41 211.91,-438.96 18.847,-37.69 34.765,-66.59 54.14,-66.59 5.774,0 11.848,2.56 18.407,8.22 -2.297,-2.59 -4.532,-4.82 -6.715,-6.71 -6.567,-5.68 -12.66,-8.26 -18.442,-8.26"
         inkscape:connector-curvature="0" /><path
         id="path48"
         style="fill:#ececec;fill-opacity:1;fill-rule:nonzero;stroke:none"
         d="m 925.336,357.469 c -2.172,0 -4.141,0.312 -5.887,0.941 -46.429,16.891 -232.148,177.281 -219.488,282.809 11.824,98.562 171.656,921.861 182.676,1029.941 l 0.215,1.26 c -1.438,2.31 -2.622,4.99 -3.399,8.06 l -59.621,110.02 c 1.305,1.28 2.633,2.68 3.977,4.2 0.914,0.79 1.836,1.64 2.765,2.55 l 59.621,-110.02 c 0.778,-3.08 1.961,-5.76 3.399,-8.07 l -0.215,-1.26 C 878.359,1569.82 718.535,746.531 706.703,647.961 694.043,542.441 879.766,382.039 926.195,365.16 c 1.746,-0.64 3.715,-0.949 5.887,-0.949 31.367,0 105.158,64.027 167.078,125.598 -2.11,-2.118 -4.23,-4.25 -6.37,-6.379 -62,-61.68 -136.02,-125.961 -167.454,-125.961 M 1208.98,1678.52 c -11.74,0 -24.76,10.61 -40.46,36.32 -9.18,15.02 -26.89,32.94 -48.5,51.88 -0.55,4.04 -0.99,7.56 -1.31,10.54 l -0.41,2.31 c 0.16,0.26 0.32,0.53 0.48,0.8 25.19,-21.47 46.19,-41.95 56.48,-58.78 15.7,-25.7 28.72,-36.32 40.46,-36.32 5.56,-0.01 10.83,2.37 15.97,6.65 -2.23,-2.59 -4.48,-4.86 -6.75,-6.75 -5.13,-4.28 -10.4,-6.65 -15.96,-6.65 m -511.535,0 c -19.375,0 -35.293,28.9 -54.14,66.59 -30.274,60.55 -166.5,351.92 -211.91,438.96 -16.016,30.7 -21.676,50.09 -19.637,59.52 0.883,4.08 3.203,6.3 6.75,6.75 -2.043,-9.43 3.617,-28.82 19.637,-59.53 45.41,-87.03 181.636,-378.41 211.91,-438.95 18.847,-37.7 34.761,-66.59 54.136,-66.59 5.778,0 11.868,2.57 18.43,8.24 -1.344,-1.52 -2.672,-2.92 -3.973,-4.19 -0.945,-0.92 -1.875,-1.78 -2.796,-2.58 -6.559,-5.66 -12.633,-8.22 -18.407,-8.22"
         inkscape:connector-curvature="0" /><path
         id="path50"
         style="fill:#ecebeb;fill-opacity:1;fill-rule:nonzero;stroke:none"
         d="m 932.082,364.211 c -2.172,0 -4.141,0.309 -5.887,0.949 -46.429,16.879 -232.152,177.281 -219.492,282.801 11.832,98.57 171.656,921.859 182.676,1029.939 l 0.215,1.26 c -1.438,2.31 -2.621,4.99 -3.399,8.07 l -59.621,110.02 c 2.121,2.07 4.289,4.46 6.512,7.18 l 59.859,-110.46 c 0.774,-3.07 1.961,-5.75 3.399,-8.06 l -0.215,-1.26 C 885.105,1576.57 725.277,753.281 713.453,654.711 700.789,549.18 886.508,388.789 932.938,371.898 c 1.746,-0.628 3.718,-0.937 5.886,-0.937 31.434,0 105.456,64.277 167.456,125.969 -2.35,-2.371 -4.73,-4.75 -7.12,-7.121 C 1037.24,428.238 963.449,364.211 932.082,364.211 M 1215.72,1685.27 c -11.74,0 -24.76,10.62 -40.46,36.32 -10.29,16.83 -31.29,37.31 -56.48,58.78 1.32,2.29 2.4,4.92 3.09,7.9 l 0.7,1.35 c 26.5,-22.39 48.75,-43.8 59.44,-61.29 15.71,-25.7 28.72,-36.32 40.46,-36.32 5.56,0 10.83,2.38 15.96,6.65 -2.23,-2.59 -4.47,-4.85 -6.74,-6.74 -5.14,-4.28 -10.41,-6.66 -15.97,-6.65 m -511.529,0 c -19.375,0 -35.289,28.89 -54.136,66.59 -30.274,60.54 -166.5,351.92 -211.91,438.95 -16.02,30.71 -21.68,50.1 -19.637,59.53 0.883,4.07 3.203,6.29 6.742,6.75 -2.039,-9.43 3.621,-28.83 19.637,-59.53 45.41,-87.03 181.636,-378.41 211.91,-438.96 18.848,-37.69 34.766,-66.59 54.137,-66.59 5.777,0 11.855,2.57 18.414,8.23 -1.34,-1.51 -2.657,-2.9 -3.957,-4.18 -0.934,-0.91 -1.856,-1.76 -2.77,-2.55 -6.562,-5.67 -12.652,-8.24 -18.43,-8.24"
         inkscape:connector-curvature="0" /><path
         id="path52"
         style="fill:#ebebea;fill-opacity:1;fill-rule:nonzero;stroke:none"
         d="m 938.824,370.961 c -2.168,0 -4.14,0.309 -5.886,0.937 -46.43,16.891 -232.149,177.282 -219.485,282.813 11.824,98.57 171.652,921.859 182.676,1029.939 l 0.215,1.26 c -1.438,2.31 -2.625,4.99 -3.399,8.06 l -59.859,110.46 c 1.973,2.42 3.98,5.09 6.047,8.04 l 60.555,-111.75 c 0.777,-3.07 1.96,-5.76 3.398,-8.07 l -0.215,-1.26 C 891.852,1583.31 732.027,760.02 720.199,661.449 707.531,555.93 893.258,395.531 939.688,378.648 c 1.746,-0.636 3.714,-0.937 5.882,-0.937 31.371,0 105.16,64.019 167.08,125.59 -2.11,-2.121 -4.23,-4.25 -6.37,-6.371 -62,-61.692 -136.022,-125.969 -167.456,-125.969 M 1222.47,1692.01 c -11.74,0 -24.75,10.62 -40.46,36.32 -10.69,17.49 -32.94,38.9 -59.44,61.29 l 4.46,8.67 c 27.51,-23.08 50.73,-45.23 61.72,-63.21 15.71,-25.7 28.72,-36.32 40.47,-36.32 5.55,0 10.83,2.37 15.96,6.65 -2.23,-2.59 -4.47,-4.86 -6.75,-6.75 -5.13,-4.27 -10.4,-6.65 -15.96,-6.65 m -511.536,0 c -19.371,0 -35.289,28.9 -54.137,66.59 -30.274,60.55 -166.5,351.93 -211.91,438.96 -16.016,30.7 -21.676,50.1 -19.637,59.53 0.883,4.07 3.203,6.29 6.75,6.74 -2.047,-9.42 3.617,-28.82 19.637,-59.53 45.41,-87.03 181.633,-378.41 211.91,-438.95 18.848,-37.7 34.762,-66.59 54.137,-66.59 5.777,0 11.863,2.57 18.429,8.24 -1.343,-1.52 -2.672,-2.91 -3.972,-4.19 -0.942,-0.92 -1.871,-1.77 -2.793,-2.57 -6.559,-5.66 -12.637,-8.23 -18.414,-8.23"
         inkscape:connector-curvature="0" /><path
         id="path54"
         style="fill:#e9e8e7;fill-opacity:1;fill-rule:nonzero;stroke:none"
         d="m 945.57,377.711 c -2.168,0 -4.136,0.301 -5.882,0.937 -46.43,16.883 -232.157,177.282 -219.489,282.801 11.828,98.571 171.653,921.861 182.672,1029.941 l 0.215,1.26 c -1.438,2.31 -2.621,5 -3.398,8.07 l -60.555,111.75 c 1.383,1.98 2.797,4.1 4.222,6.33 0.637,0.51 1.274,1.03 1.915,1.54 l 61.164,-112.88 c 0.777,-3.07 1.964,-5.75 3.398,-8.06 l -0.215,-1.26 C 898.598,1590.06 738.773,766.77 726.941,668.199 714.281,562.672 900,402.281 946.43,385.391 c 1.746,-0.629 3.718,-0.942 5.886,-0.942 31.434,0 105.454,64.289 167.454,125.973 -2.35,-2.371 -4.73,-4.75 -7.12,-7.121 -61.92,-61.571 -135.709,-125.59 -167.08,-125.59 m 283.65,1321.049 c -11.75,0 -24.76,10.62 -40.47,36.32 -10.99,17.98 -34.21,40.13 -61.72,63.21 l 4.46,8.66 c 28.5,-23.77 52.71,-46.64 64.01,-65.13 15.7,-25.7 28.72,-36.31 40.46,-36.32 5.56,0 10.83,2.38 15.97,6.65 -2.23,-2.59 -4.48,-4.85 -6.75,-6.74 -5.13,-4.28 -10.41,-6.65 -15.96,-6.65 m -511.536,0 c -19.375,0 -35.289,28.89 -54.137,66.59 -30.277,60.54 -166.5,351.92 -211.91,438.95 -16.02,30.71 -21.684,50.11 -19.637,59.53 0.883,4.07 3.203,6.29 6.742,6.75 -2.039,-9.43 3.621,-28.83 19.637,-59.53 45.41,-87.03 181.637,-378.41 211.91,-438.96 18.848,-37.69 34.762,-66.59 54.137,-66.59 5.777,0 11.859,2.57 18.422,8.24 -1.344,-1.52 -2.664,-2.91 -3.965,-4.18 -0.934,-0.92 -1.86,-1.77 -2.77,-2.56 -6.566,-5.67 -12.652,-8.24 -18.429,-8.24"
         inkscape:connector-curvature="0" /><path
         id="path56"
         style="fill:#e7e7e6;fill-opacity:1;fill-rule:nonzero;stroke:none"
         d="m 952.316,384.449 c -2.168,0 -4.14,0.313 -5.886,0.942 C 900,402.281 714.281,562.672 726.941,668.199 738.773,766.77 898.598,1590.06 909.617,1698.14 l 0.215,1.26 c -1.434,2.31 -2.621,4.99 -3.398,8.06 l -61.164,112.88 c -0.641,-0.51 -1.278,-1.03 -1.915,-1.54 0.547,0.85 1.094,1.72 1.645,2.61 2.316,1.89 4.656,3.78 7.012,5.68 l 61.168,-112.88 c 0.773,-3.07 1.965,-5.75 3.394,-8.06 l -0.211,-1.27 C 905.34,1596.81 745.516,773.512 733.691,674.941 721.023,569.422 906.746,409.02 953.18,392.141 c 1.746,-0.641 3.715,-0.942 5.883,-0.942 31.371,0 105.157,64.02 167.077,125.59 -2.11,-2.117 -4.23,-4.238 -6.37,-6.367 -62,-61.684 -136.02,-125.973 -167.454,-125.973 M 1235.96,1705.5 c -11.74,0.01 -24.76,10.62 -40.46,36.32 -11.3,18.49 -35.51,41.36 -64.01,65.13 l 4.45,8.65 c 29.49,-24.45 54.71,-48.05 66.3,-67.03 15.71,-25.7 28.73,-36.32 40.47,-36.32 5.56,0 10.83,2.37 15.97,6.66 -2.24,-2.6 -4.48,-4.86 -6.75,-6.76 -5.14,-4.27 -10.41,-6.65 -15.97,-6.65 m -511.534,0 c -19.375,0 -35.289,28.9 -54.137,66.59 -30.273,60.55 -166.5,351.93 -211.91,438.96 -16.016,30.7 -21.676,50.1 -19.637,59.53 0.883,4.07 3.203,6.29 6.746,6.74 -2.039,-9.43 3.621,-28.82 19.641,-59.52 45.406,-87.04 181.633,-378.42 211.906,-438.96 18.852,-37.7 34.766,-66.59 54.137,-66.59 5.777,0 11.867,2.57 18.43,8.24 -1.344,-1.52 -2.668,-2.91 -3.973,-4.19 -0.938,-0.91 -1.863,-1.77 -2.781,-2.56 -6.563,-5.67 -12.645,-8.24 -18.422,-8.24"
         inkscape:connector-curvature="0" /><path
         id="path58"
         style="fill:#e7e6e5;fill-opacity:1;fill-rule:nonzero;stroke:none"
         d="m 959.063,391.199 c -2.168,0 -4.137,0.301 -5.883,0.942 -46.434,16.879 -232.157,177.281 -219.489,282.8 11.825,98.571 171.649,921.869 182.672,1029.939 l 0.211,1.27 c -1.429,2.31 -2.621,4.99 -3.394,8.06 l -61.168,112.88 c -2.356,-1.9 -4.696,-3.79 -7.012,-5.68 0.281,0.45 0.559,0.9 0.84,1.36 0.219,0.36 0.445,0.73 0.676,1.09 4.015,3.31 8.105,6.64 12.242,9.97 l 61.168,-112.87 c 0.777,-3.08 1.965,-5.76 3.398,-8.07 l -0.215,-1.26 C 912.09,1603.55 752.266,780.262 740.434,681.691 727.773,576.172 913.492,415.77 959.922,398.891 c 1.746,-0.641 3.719,-0.95 5.887,-0.95 31.402,0 105.301,64.149 167.261,125.778 -2.29,-2.309 -4.6,-4.617 -6.93,-6.93 -61.92,-61.57 -135.706,-125.59 -167.077,-125.59 M 1242.71,1712.25 c -11.74,0 -24.76,10.62 -40.47,36.32 -11.59,18.98 -36.81,42.58 -66.3,67.03 l 4.45,8.64 c 30.47,-25.12 56.7,-49.46 68.6,-68.93 15.71,-25.7 28.72,-36.31 40.46,-36.32 5.56,0 10.83,2.38 15.97,6.66 -2.23,-2.59 -4.47,-4.85 -6.74,-6.74 -5.14,-4.29 -10.41,-6.66 -15.97,-6.66 m -511.538,0 c -19.371,0 -35.285,28.89 -54.137,66.59 -30.273,60.54 -166.5,351.92 -211.906,438.96 -16.02,30.7 -21.68,50.09 -19.641,59.52 0.883,4.08 3.203,6.29 6.746,6.75 -2.039,-9.43 3.621,-28.83 19.637,-59.53 45.41,-87.03 181.633,-378.41 211.906,-438.96 18.852,-37.69 34.766,-66.59 54.141,-66.59 5.777,0 11.859,2.57 18.418,8.24 -1.34,-1.52 -2.66,-2.91 -3.961,-4.18 -0.934,-0.92 -1.859,-1.77 -2.773,-2.56 -6.563,-5.67 -12.653,-8.24 -18.43,-8.24"
         inkscape:connector-curvature="0" /><path
         id="path60"
         style="fill:#e4e4e3;fill-opacity:1;fill-rule:nonzero;stroke:none"
         d="m 965.809,397.941 c -2.168,0 -4.141,0.309 -5.887,0.95 -46.43,16.879 -232.149,177.281 -219.488,282.8 11.832,98.571 171.656,921.859 182.675,1029.939 l 0.215,1.26 c -1.433,2.31 -2.621,4.99 -3.398,8.07 l -61.168,112.87 c -4.137,-3.33 -8.227,-6.66 -12.242,-9.97 0.527,0.83 1.078,1.67 1.652,2.52 5.629,4.71 11.43,9.45 17.336,14.2 l 61.164,-112.88 c 0.777,-3.07 1.969,-5.75 3.402,-8.06 l -0.218,-1.27 C 918.832,1610.3 759.008,787 747.184,688.43 734.516,582.91 920.238,422.512 966.672,405.629 c 1.746,-0.641 3.715,-0.938 5.883,-0.938 31.405,0 105.315,64.161 167.275,125.789 -2.24,-2.25 -4.49,-4.5 -6.76,-6.761 C 1071.11,462.09 997.211,397.941 965.809,397.941 M 1249.45,1718.99 c -11.74,0.01 -24.75,10.62 -40.46,36.32 -11.9,19.47 -38.13,43.81 -68.6,68.93 l 4.45,8.64 c 31.45,-25.79 58.7,-50.86 70.89,-70.82 15.71,-25.7 28.73,-36.32 40.47,-36.32 5.56,0 10.83,2.38 15.97,6.66 -2.23,-2.6 -4.48,-4.86 -6.75,-6.75 -5.14,-4.28 -10.41,-6.66 -15.97,-6.66 m -511.532,0 c -19.375,0 -35.289,28.9 -54.141,66.59 -30.273,60.55 -166.496,351.93 -211.906,438.96 -16.016,30.7 -21.676,50.1 -19.637,59.53 0.883,4.07 3.204,6.29 6.746,6.75 -2.039,-9.43 3.622,-28.84 19.637,-59.53 45.41,-87.04 181.637,-378.42 211.91,-438.96 18.848,-37.69 34.766,-66.59 54.137,-66.59 5.777,0 11.863,2.57 18.426,8.24 -1.344,-1.52 -2.664,-2.91 -3.969,-4.19 -0.937,-0.91 -1.863,-1.77 -2.785,-2.56 -6.559,-5.67 -12.641,-8.24 -18.418,-8.24"
         inkscape:connector-curvature="0" /><path
         id="path62"
         style="fill:#e3e3e2;fill-opacity:1;fill-rule:nonzero;stroke:none"
         d="m 972.555,404.691 c -2.168,0 -4.137,0.297 -5.883,0.938 C 920.238,422.512 734.516,582.91 747.184,688.43 759.008,787 918.832,1610.3 929.852,1718.37 l 0.218,1.27 c -1.433,2.31 -2.625,4.99 -3.402,8.06 l -61.164,112.88 c -5.906,-4.75 -11.707,-9.49 -17.336,-14.2 0.582,0.85 1.187,1.72 1.816,2.59 7.149,6.06 14.621,12.2 22.266,18.35 l 61.168,-112.87 c 0.773,-3.07 1.961,-5.76 3.398,-8.06 l -0.214,-1.27 C 925.582,1617.04 765.758,793.75 753.926,695.18 741.266,589.66 926.98,429.262 973.414,412.379 c 1.746,-0.641 3.715,-0.938 5.887,-0.938 31.399,0 105.299,64.141 167.259,125.77 -2.22,-2.242 -4.47,-4.492 -6.73,-6.731 C 1077.87,468.852 1003.96,404.691 972.555,404.691 M 1256.2,1725.74 c -11.74,0 -24.76,10.62 -40.47,36.32 -12.19,19.96 -39.44,45.03 -70.89,70.82 l 4.44,8.63 c 32.41,-26.45 60.71,-52.26 73.2,-72.71 15.71,-25.7 28.72,-36.31 40.47,-36.31 5.55,-0.01 10.82,2.37 15.96,6.65 -2.23,-2.59 -4.47,-4.85 -6.74,-6.74 -5.14,-4.28 -10.41,-6.66 -15.97,-6.66 m -511.536,0 c -19.371,0 -35.289,28.9 -54.137,66.59 -30.273,60.54 -166.5,351.92 -211.91,438.96 -16.015,30.69 -21.676,50.1 -19.637,59.53 0.883,4.07 3.204,6.28 6.747,6.74 -2.043,-9.43 3.621,-28.83 19.632,-59.53 C 530.77,2151 667,1859.62 697.27,1799.08 c 18.847,-37.7 34.765,-66.59 54.14,-66.59 5.774,0 11.86,2.56 18.418,8.23 -1.34,-1.52 -2.66,-2.91 -3.961,-4.18 -0.937,-0.91 -1.859,-1.76 -2.777,-2.56 -6.563,-5.67 -12.649,-8.24 -18.426,-8.24"
         inkscape:connector-curvature="0" /><path
         id="path64"
         style="fill:#e3e2e0;fill-opacity:1;fill-rule:nonzero;stroke:none"
         d="m 979.301,411.441 c -2.172,0 -4.141,0.297 -5.887,0.938 -46.434,16.883 -232.148,177.281 -219.488,282.801 11.832,98.57 171.656,921.86 182.676,1029.94 l 0.214,1.27 c -1.437,2.3 -2.625,4.99 -3.398,8.06 l -61.168,112.87 c -7.645,-6.15 -15.117,-12.29 -22.266,-18.35 0.645,0.89 1.317,1.79 2.008,2.7 8.563,7.37 17.649,14.88 27,22.4 l 61.168,-112.88 c 0.778,-3.07 1.969,-5.75 3.403,-8.06 l -0.219,-1.27 C 932.324,1623.79 772.5,800.488 760.672,701.93 748.008,596.398 933.73,436 980.16,419.121 c 1.746,-0.633 3.719,-0.941 5.887,-0.941 31.403,0 105.313,64.16 167.273,125.789 -2.23,-2.25 -4.49,-4.5 -6.76,-6.758 C 1084.6,475.582 1010.7,411.441 979.301,411.441 M 1262.95,1732.49 c -11.75,0 -24.76,10.61 -40.47,36.31 -12.49,20.45 -40.79,46.26 -73.2,72.71 l 4.44,8.63 c 33.38,-27.11 62.72,-53.66 75.51,-74.59 15.7,-25.7 28.72,-36.32 40.46,-36.32 5.56,0 10.83,2.38 15.97,6.66 -2.23,-2.6 -4.48,-4.86 -6.75,-6.75 -5.14,-4.28 -10.41,-6.66 -15.96,-6.65 m -511.54,0 c -19.375,0 -35.293,28.89 -54.14,66.59 -30.27,60.54 -166.5,351.92 -211.911,438.95 -16.011,30.7 -21.675,50.1 -19.632,59.53 0.882,4.08 3.203,6.29 6.746,6.75 -2.039,-9.43 3.621,-28.83 19.636,-59.53 45.411,-87.04 181.633,-378.41 211.911,-438.96 18.847,-37.69 34.761,-66.59 54.136,-66.59 5.778,0 11.864,2.57 18.426,8.24 -1.344,-1.51 -2.668,-2.91 -3.969,-4.19 -0.937,-0.91 -1.867,-1.77 -2.785,-2.56 -6.558,-5.67 -12.644,-8.23 -18.418,-8.23"
         inkscape:connector-curvature="0" /><path
         id="path66"
         style="fill:#e1e0de;fill-opacity:1;fill-rule:nonzero;stroke:none"
         d="m 986.047,418.18 c -2.168,0 -4.141,0.308 -5.887,0.941 C 933.73,436 748.008,596.398 760.672,701.93 772.5,800.488 932.324,1623.79 943.344,1731.86 l 0.219,1.27 c -1.434,2.31 -2.625,4.99 -3.403,8.06 l -61.168,112.88 c -9.351,-7.52 -18.437,-15.03 -27,-22.4 0.703,0.92 1.426,1.84 2.172,2.77 9.867,8.64 20.539,17.49 31.578,26.37 l 61.164,-112.87 c 0.778,-3.07 1.965,-5.76 3.403,-8.06 l -0.215,-1.27 C 939.07,1630.53 779.246,807.238 767.418,708.672 754.754,603.148 940.473,442.75 986.902,425.871 c 1.746,-0.641 3.719,-0.941 5.891,-0.941 31.417,0 105.367,64.211 167.347,125.859 -2.25,-2.269 -4.53,-4.551 -6.82,-6.82 C 1091.36,482.34 1017.45,418.18 986.047,418.18 m 283.643,1321.05 c -11.74,0 -24.76,10.62 -40.46,36.32 -12.79,20.93 -42.13,47.48 -75.51,74.59 l 4.44,8.61 c 34.32,-27.75 64.73,-55.05 77.81,-76.46 15.71,-25.7 28.72,-36.31 40.47,-36.31 5.55,0 10.82,2.37 15.96,6.65 -2.23,-2.59 -4.47,-4.85 -6.74,-6.74 -5.14,-4.28 -10.41,-6.66 -15.97,-6.66 m -511.534,0 c -19.375,0 -35.289,28.9 -54.136,66.59 -30.278,60.55 -166.5,351.92 -211.911,438.96 -16.015,30.7 -21.675,50.1 -19.636,59.53 0.882,4.07 3.203,6.28 6.746,6.74 -2.043,-9.43 3.617,-28.83 19.633,-59.53 45.41,-87.03 181.64,-378.41 211.91,-438.95 18.847,-37.7 34.765,-66.59 54.14,-66.59 5.774,0 11.856,2.56 18.418,8.23 -1.34,-1.51 -2.66,-2.91 -3.961,-4.18 -0.937,-0.91 -1.859,-1.76 -2.777,-2.56 -6.562,-5.67 -12.648,-8.24 -18.426,-8.24"
         inkscape:connector-curvature="0" /><path
         id="path68"
         style="fill:#dfdfdd;fill-opacity:1;fill-rule:nonzero;stroke:none"
         d="m 992.793,424.93 c -2.172,0 -4.145,0.3 -5.891,0.941 -46.429,16.879 -232.148,177.277 -219.484,282.801 11.828,98.566 171.652,921.858 182.676,1029.938 l 0.215,1.27 c -1.438,2.3 -2.625,4.99 -3.403,8.06 l -61.164,112.87 c -11.039,-8.88 -21.711,-17.73 -31.578,-26.37 0.766,0.96 1.559,1.92 2.375,2.89 11.055,9.85 23.258,20.02 35.945,30.23 l 61.168,-112.88 c 0.778,-3.07 1.965,-5.75 3.403,-8.06 l -0.219,-1.26 C 945.816,1637.28 785.988,813.98 774.164,715.422 761.5,609.891 947.223,449.5 993.652,432.609 c 1.746,-0.629 3.715,-0.937 5.883,-0.937 31.385,0 105.235,64.09 167.185,125.687 -2.18,-2.187 -4.37,-4.371 -6.58,-6.57 C 1098.16,489.141 1024.21,424.93 992.793,424.93 m 283.647,1321.05 c -11.75,0 -24.76,10.61 -40.47,36.31 -13.08,21.41 -43.49,48.71 -77.81,76.46 l 4.43,8.61 c 35.27,-28.39 66.75,-56.43 80.13,-78.32 15.7,-25.7 28.72,-36.32 40.46,-36.32 5.56,0 10.83,2.38 15.97,6.66 -2.23,-2.6 -4.48,-4.86 -6.75,-6.75 -5.14,-4.28 -10.41,-6.65 -15.96,-6.65 m -511.538,0 c -19.375,0 -35.293,28.89 -54.14,66.59 -30.27,60.54 -166.5,351.92 -211.91,438.95 -16.016,30.7 -21.676,50.1 -19.633,59.53 0.883,4.08 3.199,6.29 6.746,6.75 -2.043,-9.43 3.617,-28.83 19.637,-59.53 45.41,-87.04 181.632,-378.41 211.906,-438.96 18.851,-37.69 34.765,-66.59 54.14,-66.59 5.778,0 11.864,2.57 18.426,8.25 -1.344,-1.52 -2.668,-2.92 -3.972,-4.19 -0.938,-0.92 -1.864,-1.77 -2.782,-2.57 -6.562,-5.67 -12.644,-8.23 -18.418,-8.23"
         inkscape:connector-curvature="0" /><path
         id="path70"
         style="fill:#deddda;fill-opacity:1;fill-rule:nonzero;stroke:none"
         d="m 999.535,431.672 c -2.168,0 -4.137,0.308 -5.883,0.937 C 947.223,449.5 761.5,609.891 774.164,715.422 785.988,813.98 945.816,1637.28 956.836,1745.36 l 0.219,1.26 c -1.438,2.31 -2.625,4.99 -3.403,8.06 l -61.168,112.88 c -12.687,-10.21 -24.89,-20.38 -35.945,-30.23 0.82,0.97 1.664,1.96 2.531,2.95 12.133,11.03 25.84,22.5 40.164,34.03 l 61.164,-112.88 c 0.778,-3.07 1.965,-5.76 3.399,-8.06 l -0.211,-1.27 C 952.563,1644.02 792.738,820.73 780.906,722.16 768.246,616.641 953.965,456.238 1000.4,439.359 c 1.74,-0.64 3.71,-0.937 5.88,-0.937 31.42,0 105.37,64.207 167.35,125.859 -2.28,-2.301 -4.59,-4.609 -6.91,-6.922 -61.95,-61.597 -135.8,-125.687 -167.185,-125.687 M 1283.18,1752.72 c -11.74,0 -24.76,10.62 -40.46,36.32 -13.38,21.89 -44.86,49.93 -80.13,78.32 l 4.43,8.61 c 36.2,-29.03 68.77,-57.82 82.44,-80.18 15.71,-25.7 28.73,-36.32 40.47,-36.32 5.55,0 10.82,2.37 15.96,6.65 -2.23,-2.59 -4.47,-4.85 -6.74,-6.74 -5.14,-4.28 -10.41,-6.66 -15.97,-6.66 m -511.532,0 c -19.375,0 -35.289,28.9 -54.14,66.59 -30.274,60.55 -166.496,351.92 -211.906,438.96 -16.02,30.7 -21.68,50.1 -19.637,59.53 0.883,4.07 3.199,6.28 6.746,6.74 -2.043,-9.43 3.617,-28.83 19.633,-59.52 45.41,-87.04 181.64,-378.41 211.91,-438.96 18.848,-37.7 34.762,-66.59 54.137,-66.59 5.777,0 11.867,2.57 18.429,8.24 -1.343,-1.52 -2.668,-2.91 -3.972,-4.19 -0.934,-0.91 -1.86,-1.76 -2.774,-2.55 -6.562,-5.68 -12.648,-8.25 -18.426,-8.25"
         inkscape:connector-curvature="0" /><path
         id="path72"
         style="fill:#dddbd9;fill-opacity:1;fill-rule:nonzero;stroke:none"
         d="m 1006.28,438.422 c -2.17,0 -4.14,0.297 -5.88,0.937 -46.435,16.879 -232.154,177.282 -219.494,282.801 11.832,98.57 171.657,921.86 182.68,1029.94 l 0.211,1.27 c -1.434,2.3 -2.621,4.99 -3.399,8.06 l -61.164,112.88 c -14.324,-11.53 -28.031,-23 -40.164,-34.03 0.895,1.02 1.809,2.04 2.746,3.08 13.082,12.14 28.239,24.88 44.161,37.69 l 61.168,-112.88 c 0.773,-3.07 1.964,-5.75 3.402,-8.06 l -0.219,-1.26 C 959.305,1650.77 799.48,827.469 787.656,728.91 774.988,623.379 960.715,462.988 1007.14,446.102 c 1.75,-0.633 3.72,-0.942 5.89,-0.942 31.39,0 105.23,64.09 167.18,125.692 -2.18,-2.18 -4.37,-4.372 -6.58,-6.571 -61.98,-61.652 -135.93,-125.859 -167.35,-125.859 m 283.65,1321.048 c -11.74,0 -24.76,10.62 -40.47,36.32 -13.67,22.36 -46.24,51.15 -82.44,80.18 l 4.43,8.6 c 37.12,-29.65 70.8,-59.2 84.76,-82.04 15.71,-25.7 28.72,-36.31 40.46,-36.32 5.56,0 10.83,2.38 15.97,6.66 -2.23,-2.59 -4.48,-4.86 -6.75,-6.75 -5.14,-4.28 -10.41,-6.65 -15.96,-6.65 m -511.539,0 c -19.375,0 -35.289,28.89 -54.137,66.59 -30.27,60.55 -166.5,351.92 -211.91,438.96 -16.016,30.69 -21.676,50.09 -19.633,59.52 0.879,4.08 3.199,6.29 6.742,6.75 -2.039,-9.43 3.621,-28.83 19.641,-59.53 45.406,-87.03 181.633,-378.4 211.906,-438.95 18.852,-37.7 34.766,-66.6 54.137,-66.6 5.777,0 11.859,2.57 18.418,8.24 -1.34,-1.52 -2.66,-2.91 -3.961,-4.18 -0.938,-0.92 -1.86,-1.76 -2.774,-2.56 -6.562,-5.67 -12.652,-8.24 -18.429,-8.24 m 735.689,535.82 c 0.43,0.42 0.86,0.84 1.28,1.26 -0.23,-0.24 -0.46,-0.48 -0.69,-0.72 -0.2,-0.18 -0.4,-0.36 -0.59,-0.54"
         inkscape:connector-curvature="0" /><path
         id="path74"
         style="fill:#dbdad8;fill-opacity:1;fill-rule:nonzero;stroke:none"
         d="m 1013.03,445.16 c -2.17,0 -4.14,0.309 -5.89,0.942 -46.425,16.886 -232.152,177.277 -219.484,282.808 11.824,98.559 171.649,921.86 182.672,1029.94 l 0.219,1.26 c -1.438,2.31 -2.629,4.99 -3.402,8.06 l -61.168,112.88 c -15.922,-12.81 -31.079,-25.55 -44.161,-37.69 0.942,1.03 1.903,2.06 2.883,3.11 13.918,13.22 30.512,27.23 48.024,41.33 l 61.168,-112.88 c 0.777,-3.07 1.964,-5.76 3.398,-8.06 l -0.215,-1.27 C 966.055,1657.51 806.23,834.219 794.398,735.648 781.738,630.129 967.457,469.738 1013.89,452.852 c 1.74,-0.633 3.71,-0.942 5.88,-0.942 31.42,0 105.37,64.211 167.35,125.86 -2.28,-2.301 -4.59,-4.61 -6.91,-6.918 C 1118.26,509.25 1044.42,445.16 1013.03,445.16 m 283.64,1321.05 c -11.74,0.01 -24.75,10.62 -40.46,36.32 -13.96,22.84 -47.64,52.39 -84.76,82.04 l 4.42,8.6 c 38.04,-30.27 72.83,-60.57 87.08,-83.89 15.71,-25.7 28.73,-36.32 40.47,-36.32 5.56,0 10.83,2.38 15.96,6.65 -2.23,-2.59 -4.47,-4.85 -6.74,-6.74 -5.14,-4.28 -10.41,-6.66 -15.97,-6.66 m -511.533,0 c -19.371,0 -35.285,28.9 -54.137,66.6 -30.273,60.55 -166.5,351.92 -211.906,438.95 -16.02,30.7 -21.68,50.1 -19.641,59.53 0.883,4.07 3.203,6.28 6.746,6.74 -2.039,-9.42 3.621,-28.83 19.637,-59.53 45.406,-87.03 181.641,-378.4 211.906,-438.95 18.852,-37.69 34.766,-66.59 54.141,-66.59 5.777,0 11.867,2.57 18.426,8.24 -1.34,-1.52 -2.664,-2.91 -3.969,-4.19 -0.938,-0.91 -1.867,-1.77 -2.785,-2.56 -6.559,-5.67 -12.641,-8.24 -18.418,-8.24 m 729.533,529.62 c 0.23,0.24 0.46,0.48 0.69,0.72 2.34,2.4 4.64,4.7 6.9,6.9 -1.59,-1.64 -3.21,-3.32 -4.85,-5.05 -0.89,-0.84 -1.81,-1.7 -2.74,-2.57"
         inkscape:connector-curvature="0" /><path
         id="path76"
         style="fill:#d9d8d7;fill-opacity:1;fill-rule:nonzero;stroke:none"
         d="m 1019.77,451.91 c -2.17,0 -4.14,0.309 -5.88,0.942 -46.433,16.886 -232.152,177.277 -219.492,282.796 11.832,98.571 171.657,921.862 182.676,1029.942 l 0.215,1.27 c -1.434,2.3 -2.621,4.99 -3.398,8.06 l -61.168,112.88 c -17.512,-14.1 -34.106,-28.11 -48.024,-41.33 1.031,1.09 2.082,2.19 3.16,3.3 14.61,14.22 32.563,29.45 51.61,44.78 l 61.164,-112.89 c 0.777,-3.07 1.969,-5.75 3.402,-8.06 l -0.219,-1.26 C 972.797,1664.26 812.973,840.969 801.148,742.398 788.48,636.871 974.203,476.48 1020.63,459.59 c 1.75,-0.629 3.72,-0.942 5.89,-0.942 31.39,0 105.23,64.102 167.18,125.692 -2.18,-2.18 -4.37,-4.371 -6.58,-6.57 -61.98,-61.649 -135.93,-125.86 -167.35,-125.86 m 283.65,1321.05 c -11.74,0 -24.76,10.62 -40.47,36.32 -14.25,23.32 -49.04,53.62 -87.08,83.89 l 4.43,8.59 c 38.93,-30.88 74.86,-61.95 89.4,-85.74 15.71,-25.7 28.72,-36.31 40.46,-36.32 5.56,0 10.83,2.38 15.97,6.66 -2.23,-2.59 -4.47,-4.86 -6.75,-6.75 -5.13,-4.27 -10.4,-6.65 -15.96,-6.65 m -511.537,0 c -19.375,0 -35.289,28.9 -54.141,66.59 -30.265,60.55 -166.5,351.92 -211.906,438.95 -16.016,30.7 -21.676,50.11 -19.637,59.53 0.883,4.08 3.203,6.29 6.746,6.75 -2.039,-9.43 3.621,-28.83 19.637,-59.53 45.41,-87.03 181.637,-378.41 211.91,-438.95 18.848,-37.7 34.766,-66.6 54.137,-66.6 5.773,0 11.855,2.57 18.41,8.23 -1.336,-1.51 -2.656,-2.9 -3.953,-4.17 -0.938,-0.91 -1.859,-1.76 -2.777,-2.56 -6.559,-5.67 -12.649,-8.24 -18.426,-8.24 m 725.527,525.44 c 1.64,1.73 3.26,3.41 4.85,5.05 2.23,2.28 4.42,4.47 6.58,6.57 -1.85,-1.89 -3.72,-3.84 -5.61,-5.84 -0.72,-0.77 -1.46,-1.55 -2.22,-2.34 -1.16,-1.12 -2.36,-2.27 -3.6,-3.44"
         inkscape:connector-curvature="0" /><path
         id="path78"
         style="fill:#d8d7d5;fill-opacity:1;fill-rule:nonzero;stroke:none"
         d="m 1026.52,458.648 c -2.17,0 -4.14,0.313 -5.89,0.942 -46.427,16.89 -232.15,177.281 -219.482,282.808 11.825,98.571 171.649,921.862 182.668,1029.942 l 0.219,1.26 c -1.433,2.31 -2.625,4.99 -3.402,8.06 l -61.164,112.89 c -19.047,-15.33 -37,-30.56 -51.61,-44.78 15.637,16.09 36.262,33.74 58.356,51.52 l 61.168,-112.88 c 0.773,-3.07 1.961,-5.75 3.398,-8.06 l -0.215,-1.26 C 979.547,1671 819.723,847.711 807.891,749.141 795.23,643.621 980.945,483.23 1027.38,466.34 c 1.74,-0.629 3.71,-0.942 5.88,-0.942 31.43,0 105.44,64.274 167.44,125.942 -2.32,-2.32 -4.65,-4.66 -7,-7 -61.95,-61.59 -135.79,-125.692 -167.18,-125.692 M 1310.16,1779.7 c -11.74,0.01 -24.75,10.62 -40.46,36.32 -14.54,23.79 -50.47,54.86 -89.4,85.74 l 4.42,8.58 c 39.82,-31.48 76.9,-63.31 91.73,-87.57 15.7,-25.7 28.72,-36.32 40.46,-36.32 5.56,0 10.83,2.38 15.97,6.66 -2.23,-2.6 -4.48,-4.86 -6.75,-6.75 -5.14,-4.28 -10.41,-6.66 -15.97,-6.66 m -511.531,0 c -19.371,0 -35.289,28.9 -54.137,66.6 -30.273,60.54 -166.5,351.92 -211.91,438.95 -16.016,30.7 -21.676,50.1 -19.637,59.53 0.883,4.08 3.203,6.29 6.75,6.74 -2.043,-9.43 3.618,-28.82 19.637,-59.52 45.402,-87.04 181.633,-378.41 211.902,-438.96 18.848,-37.69 34.766,-66.59 54.137,-66.59 5.781,0 11.871,2.57 18.438,8.25 -1.344,-1.52 -2.672,-2.92 -3.977,-4.2 -0.941,-0.92 -1.871,-1.77 -2.793,-2.57 -6.555,-5.66 -12.637,-8.23 -18.41,-8.23 m 722.381,522.14 c 0.76,0.79 1.5,1.57 2.22,2.34 1.89,2 3.76,3.95 5.61,5.84 2.34,2.41 4.65,4.71 6.92,6.92 -1.91,-1.94 -3.83,-3.95 -5.78,-6.02 -2.69,-2.86 -5.68,-5.88 -8.97,-9.08"
         inkscape:connector-curvature="0" /><path
         id="path80"
         style="fill:#d7d6d4;fill-opacity:1;fill-rule:nonzero;stroke:none"
         d="m 1033.26,465.398 c -2.17,0 -4.14,0.313 -5.88,0.942 -46.435,16.89 -232.15,177.281 -219.489,282.801 11.832,98.57 171.656,921.859 182.675,1029.949 l 0.215,1.26 c -1.437,2.31 -2.625,4.99 -3.398,8.06 l -61.168,112.88 c -22.094,-17.78 -42.719,-35.43 -58.356,-51.52 -1.078,-1.11 -2.129,-2.21 -3.16,-3.3 -0.98,-1.05 -1.941,-2.08 -2.883,-3.11 -0.937,-1.04 -1.851,-2.06 -2.746,-3.08 -0.867,-0.99 -1.711,-1.98 -2.531,-2.95 -0.816,-0.97 -1.609,-1.93 -2.375,-2.89 -0.746,-0.93 -1.469,-1.85 -2.172,-2.77 -0.691,-0.91 -1.363,-1.81 -2.008,-2.7 -0.629,-0.87 -1.234,-1.74 -1.816,-2.59 -0.574,-0.85 -1.125,-1.69 -1.652,-2.52 -0.231,-0.36 -0.457,-0.73 -0.676,-1.09 -0.281,-0.46 -0.559,-0.91 -0.84,-1.36 -0.551,-0.89 -1.098,-1.76 -1.645,-2.61 -1.425,-2.23 -2.839,-4.35 -4.222,-6.33 -2.067,-2.95 -4.074,-5.62 -6.047,-8.04 -2.223,-2.72 -4.391,-5.11 -6.512,-7.18 -0.929,-0.91 -1.851,-1.76 -2.765,-2.55 -6.567,-5.68 -12.657,-8.25 -18.438,-8.25 -19.371,0 -35.289,28.9 -54.137,66.59 -30.269,60.55 -166.5,351.92 -211.902,438.96 -16.019,30.7 -21.68,50.09 -19.637,59.52 0.996,4.61 3.832,6.84 8.2,6.84 12.031,0 35.66,-16.9 64.41,-47.44 60.113,-63.87 276.871,-217.21 468.835,-278.66 177.73,56.89 376.69,192.53 452.94,263.03 0.19,0.18 0.39,0.36 0.59,0.54 0.93,0.87 1.85,1.73 2.74,2.57 1.24,1.17 2.44,2.32 3.6,3.44 3.29,3.2 6.28,6.22 8.97,9.08 1.95,2.07 3.87,4.08 5.78,6.02 26.12,26.74 47.42,41.42 58.63,41.42 13.3,0 12.41,-20.66 -11.43,-66.36 -45.41,-87.04 -181.64,-378.41 -211.91,-438.96 -13.44,-26.88 -25.4,-49.29 -38.17,-59.93 -5.14,-4.28 -10.41,-6.66 -15.97,-6.66 -11.74,0 -24.76,10.62 -40.46,36.32 -14.83,24.26 -51.91,56.09 -91.73,87.57 l -4.42,-8.58 -4.43,-8.59 -4.42,-8.6 -4.43,-8.6 -4.43,-8.61 -4.43,-8.61 -4.44,-8.61 -4.44,-8.63 -4.44,-8.63 -4.45,-8.64 -4.45,-8.64 -4.45,-8.65 -4.46,-8.66 -4.46,-8.67 -0.7,-1.35 c -0.69,-2.98 -1.77,-5.61 -3.09,-7.9 -0.16,-0.27 -0.32,-0.54 -0.48,-0.8 l 0.41,-2.31 c 0.32,-2.98 0.76,-6.5 1.31,-10.54 0.59,-4.31 1.3,-9.22 2.13,-14.67 0.72,-4.71 1.51,-9.8 2.4,-15.3 0.81,-5.04 1.69,-10.43 2.63,-16.09 0.91,-5.51 1.89,-11.31 2.92,-17.38 1.1,-6.46 2.26,-13.21 3.49,-20.26 1.27,-7.33 2.6,-14.96 4,-22.88 1.04,-5.92 2.13,-12.06 3.23,-18.3 0.81,-4.55 1.63,-9.16 2.48,-13.87 0.58,-3.28 1.17,-6.55 1.77,-9.9 0.38,-2.12 0.77,-4.28 1.15,-6.44 0.21,-1.17 0.42,-2.33 0.64,-3.51 0.06,-0.35 0.13,-0.76 0.2,-1.11 54.64,-303.73 166.01,-883.639 150.46,-908.522 -8.82,-14.097 -49.29,-59.859 -96.82,-107.148 -62,-61.668 -136.01,-125.942 -167.44,-125.942"
         inkscape:connector-curvature="0" /><path
         id="path82"
         style="fill:#f5f5f5;fill-opacity:1;fill-rule:nonzero;stroke:none"
         d="m 1529.98,2310.92 h 0.1 z m -512.89,-534.51 v -0.06 z m -0.09,-0.9 c -6.47,-61.4 -55.059,-324.11 -102.043,-578.2 -38.711,-209.33 -75.273,-407.048 -80.594,-451.341 -10.519,-87.68 156.797,-235.27 200.107,-253.77 41.14,5.961 206.97,172.981 237.96,216.731 2.35,54.05 -67.97,436.81 -114.83,691.88 -32.4,176.38 -60.41,328.82 -65.33,372.9 l -0.28,1.53 c -1.06,6.4 0.26,12.97 3.7,18.47 0.5,2.14 1.47,4.81 2.48,6.76 l 62.84,122.08 c 3.65,7.09 10.27,12.17 18.07,13.86 7.77,1.7 15.92,-0.21 22.17,-5.15 54.44,-43.04 83.74,-71.33 97.94,-94.58 8.78,-14.36 14.63,-20.2 17.5,-22.48 9.16,8.07 24.46,38.67 30.51,50.76 11.3,22.6 37.87,78.44 68.63,143.1 50.28,105.65 112.62,236.67 141.87,293.15 -2.64,-2.64 -5.41,-5.49 -8.3,-8.57 -62.1,-65.96 -281.71,-222.26 -480.13,-285.78 -5.29,-1.68 -10.97,-1.68 -16.26,0 -198.412,63.53 -418.03,219.82 -480.123,285.78 -2.891,3.08 -5.657,5.93 -8.293,8.57 29.261,-56.52 91.625,-187.58 141.918,-293.28 30.738,-64.59 57.285,-120.39 68.57,-142.97 6.051,-12.09 21.348,-42.69 30.508,-50.76 2.875,2.28 8.723,8.12 17.496,22.48 13.184,21.56 39.836,47.89 86.41,85.38 6.164,4.97 14.203,6.93 21.973,5.37 7.754,-1.55 14.418,-6.48 18.187,-13.43 l 61.164,-112.88 c 1.06,-1.95 1.87,-4.03 2.41,-6.17 3.29,-5.28 4.81,-12.04 3.97,-18.2 z m 16.37,-1337.24 c -6.8,-0.008 -11.44,1.679 -15.1,3.011 -53.172,19.34 -251.407,189.758 -236.852,311.039 5.516,45.969 42.23,244.5 81.098,454.69 43.476,235.08 92.578,500.59 100.867,568.94 l -0.781,2.23 -44.383,81.91 c -18.489,-15.85 -40.481,-36.26 -49.629,-51.22 -13.242,-21.68 -34.461,-50.4 -65.172,-49.04 -36.152,1.54 -56.426,42.08 -76.031,81.29 -11.524,23.04 -38.168,79.04 -69.028,143.9 -51.054,107.3 -114.593,240.83 -142.671,294.64 -19.735,37.84 -36.153,79.18 -8.239,99.02 23.602,16.78 56.723,1.03 104.274,-49.49 56.347,-59.87 264.371,-207.31 449.417,-268.89 185.05,61.58 393.07,209.02 449.42,268.89 47.57,50.54 80.69,66.25 104.27,49.49 27.92,-19.83 11.51,-61.18 -8.23,-99.02 -28.07,-53.78 -91.58,-187.27 -142.61,-294.52 -30.89,-64.91 -57.56,-120.97 -69.09,-144.02 -19.61,-39.21 -39.88,-79.75 -76.03,-81.29 -31.01,-1.2 -51.93,27.37 -65.18,49.04 -10.14,16.59 -35.53,39.64 -60.25,60.16 l -46.58,-90.49 c -0.33,-1.08 -0.69,-2.14 -1.08,-3.19 5.94,-47.38 33.05,-194.97 64.27,-364.9 117.61,-640.141 123.43,-704.731 110.08,-726.091 -12.57,-20.109 -70.77,-84.39 -129.86,-140.3 -95.09,-90 -136.11,-105.789 -156.9,-105.789"
         inkscape:connector-curvature="0" /><g
         id="g84"><g
           clip-path="url(#clipPath90)"
           id="g86"><path
             id="path102"
             style="fill:url(#linearGradient100);fill-opacity:1;fill-rule:nonzero;stroke:none"
             d="m 998.168,1797.9 c -4.105,-4.57 -6.836,-11.3 -7.602,-18.81 C 979.547,1671 819.723,847.711 807.891,749.141 795.23,643.621 980.945,483.23 1027.38,466.34 c 46.43,-16.879 249.04,198.39 270.14,232.148 19.8,31.684 -166.26,963.632 -178.81,1078.772 -0.82,7.47 -3.57,14.16 -7.68,18.67 l -40.91,50.39 c -10.33,7.66 -24.47,7.62 -34.74,-0.12 l -37.212,-48.3"
             inkscape:connector-curvature="0" /></g></g><g
         id="g104"><g
           clip-path="url(#clipPath110)"
           id="g106"><path
             id="path122"
             style="fill:url(#linearGradient120);fill-opacity:1;fill-rule:nonzero;stroke:none"
             d="m 884.285,1978.67 103.098,-190.26 c 2.578,-10.22 9.359,-16.74 16.727,-16.09 21.08,1.87 65.12,4.65 100.23,-0.65 7.75,-1.16 15,5.72 17.53,16.6 l 96.85,188.13 c 5.02,14.6 -4.35,30.17 -19.59,32.57 -50.4,7.94 -161.63,20.29 -294.661,2.99 -15.879,-2.07 -25.778,-18.29 -20.184,-33.29"
             inkscape:connector-curvature="0" /></g></g><g
         id="g124"><g
           clip-path="url(#clipPath130)"
           id="g126"><path
             id="path140"
             style="fill:url(#linearGradient138);fill-opacity:1;fill-rule:nonzero;stroke:none"
             d="m 1065.32,2030.89 c 39.05,-12.25 -177.855,-140.01 -219.48,-208.12 -41.625,-68.11 -64.332,-30.27 -94.606,30.27 -30.269,60.55 -166.5,351.92 -211.91,438.96 -45.402,87.03 -7.562,83.25 52.981,18.92 60.547,-64.33 280.023,-219.48 473.015,-280.03"
             inkscape:connector-curvature="0" /></g></g><g
         id="g142"><g
           clip-path="url(#clipPath148)"
           id="g144"><path
             id="path158"
             style="fill:url(#linearGradient156);fill-opacity:1;fill-rule:nonzero;stroke:none"
             d="m 1056.97,2030.89 c -39.06,-12.25 177.85,-140.01 219.47,-208.12 41.63,-68.11 64.34,-30.27 94.61,30.27 30.27,60.55 166.5,351.92 211.91,438.96 45.4,87.03 7.57,83.25 -52.98,18.92 -60.55,-64.33 -280.02,-219.48 -473.01,-280.03"
             inkscape:connector-curvature="0" /></g></g><text
         xml:space="preserve"
         style="font-style:normal;font-variant:normal;font-weight:normal;font-stretch:normal;font-size:100px;line-height:1.25;font-family:Haettenschweiler;-inkscape-font-specification:Haettenschweiler;text-align:end;letter-spacing:0px;word-spacing:0px;text-anchor:end;fill:#000000;fill-opacity:1;stroke:none;stroke-width:7.5"
         x="3040.2078"
         y="-1549.9619"
         id="text906"
         transform="scale(1,-1)"><tspan
           sodipodi:role="line"
           id="tspan904"
           x="3040.2078"
           y="-1549.9619"
           style="font-size:400px;text-align:end;text-anchor:end;fill:#a971b0;fill-opacity:1;stroke-width:7.5">PLANO</tspan><tspan
           sodipodi:role="line"
           x="3040.2078"
           y="-1049.9619"
           style="font-size:400px;text-align:end;text-anchor:end;fill:#a971b0;fill-opacity:1;stroke-width:7.5"
           id="tspan908">EXECUTIVO</tspan></text>
</g></g></svg>