<?xml version="1.0" encoding="UTF-8" standalone="no"?>
<svg
   xmlns:dc="http://purl.org/dc/elements/1.1/"
   xmlns:cc="http://creativecommons.org/ns#"
   xmlns:rdf="http://www.w3.org/1999/02/22-rdf-syntax-ns#"
   xmlns:svg="http://www.w3.org/2000/svg"
   xmlns="http://www.w3.org/2000/svg"
   xmlns:sodipodi="http://sodipodi.sourceforge.net/DTD/sodipodi-0.dtd"
   xmlns:inkscape="http://www.inkscape.org/namespaces/inkscape"
   height="750"
   viewBox="0 -53 562.49998 562.49998"
   width="750"
   version="1.1"
   id="svg18"
   sodipodi:docname="sport-bag.svg"
   inkscape:export-filename="D:\Resultados PME\RESULTADOS PME\MATERIAL DE CLIENTES\RPME0012 - LAVA E LEVA (DIADEMA -- Vila Nogueira - SP)\SITE\img\malote.png"
   inkscape:export-xdpi="70.400002"
   inkscape:export-ydpi="70.400002"
   inkscape:version="0.92.4 (5da689c313, 2019-01-14)">
  <metadata
     id="metadata24">
    <rdf:RDF>
      <cc:Work
         rdf:about="">
        <dc:format>image/svg+xml</dc:format>
        <dc:type
           rdf:resource="http://purl.org/dc/dcmitype/StillImage" />
        <dc:title></dc:title>
      </cc:Work>
    </rdf:RDF>
  </metadata>
  <defs
     id="defs22" />
  <sodipodi:namedview
     pagecolor="#ffffff"
     bordercolor="#666666"
     borderopacity="1"
     objecttolerance="10"
     gridtolerance="10"
     guidetolerance="10"
     inkscape:pageopacity="0"
     inkscape:pageshadow="2"
     inkscape:window-width="1920"
     inkscape:window-height="1001"
     id="namedview20"
     showgrid="false"
     units="px"
     inkscape:pagecheckerboard="true"
     inkscape:zoom="0.9777961"
     inkscape:cx="256.81208"
     inkscape:cy="400.86151"
     inkscape:window-x="-9"
     inkscape:window-y="-9"
     inkscape:window-maximized="1"
     inkscape:current-layer="svg18" />
  <g
     id="g860"
     transform="translate(2.3010915)">
    <path
       style="fill:#d2a3ea;fill-opacity:1"
       inkscape:connector-curvature="0"
       id="path2"
       d="m 199.49968,141.15953 h 300.14063 c 19.5,0 35.30859,15.80859 35.30859,35.30859 V 353.0189 c 0,19.50391 -15.80859,35.3125 -35.30859,35.3125 H 58.257491 c -19.5,0 -35.308594,-15.80859 -35.308594,-35.3125 V 176.46812 c 0,-19.5 15.808594,-35.30859 35.308594,-35.30859 z m 0,0" />
    <g
       transform="translate(22.948897,-17.738904)"
       style="fill:#aa66cc;fill-opacity:1"
       id="g12">
      <path
         style="fill:#aa66cc;fill-opacity:1"
         inkscape:connector-curvature="0"
         id="path4"
         d="m 176.55078,194.20703 h 17.65625 c 4.875,0 8.82813,3.95313 8.82813,8.82813 v 17.65625 c 0,24.375 -19.76172,44.13671 -44.13672,44.13671 -24.37891,0 -44.14063,-19.76171 -44.14063,-44.13671 v -17.65625 c 0,-4.875 3.95313,-8.82813 8.82813,-8.82813 z m 0,0" />
      <path
         style="fill:#aa66cc;fill-opacity:1"
         inkscape:connector-curvature="0"
         id="path6"
         d="m 370.75781,194.20703 h 17.65625 c 4.875,0 8.82813,3.95313 8.82813,8.82813 v 17.65625 c 0,24.375 -19.76172,44.13671 -44.14063,44.13671 -24.375,0 -44.13672,-19.76171 -44.13672,-44.13671 v -17.65625 c 0,-4.875 3.95313,-8.82813 8.82813,-8.82813 z m 0,0" />
      <path
         style="fill:#aa66cc;fill-opacity:1"
         inkscape:connector-curvature="0"
         id="path8"
         d="m 44.136719,158.89844 h 35.3125 v 247.17187 h -35.3125 z m 0,0" />
      <path
         style="fill:#aa66cc;fill-opacity:1"
         inkscape:connector-curvature="0"
         id="path10"
         d="m 432.55078,158.89844 h 35.3125 v 247.17187 h -35.3125 z m 0,0" />
    </g>
    <path
       style="fill:#607d8b;fill-opacity:1"
       inkscape:connector-curvature="0"
       id="path14"
       d="m 155.36296,291.22593 h 247.17188 c 4.875,0 8.82812,3.95313 8.82812,8.82813 v 35.30859 c 0,4.87891 -3.95312,8.82813 -8.82812,8.82813 H 155.36296 c -4.875,0 -8.82812,-3.94922 -8.82812,-8.82813 v -35.30859 c 0,-4.875 3.95312,-8.82813 8.82812,-8.82813 z m 0,0" />
    <path
       style="fill:#9129c4;fill-opacity:1"
       inkscape:connector-curvature="0"
       id="path16"
       d="M 199.49968,185.29625 V 44.054068 c 0,-14.625003 11.85938,-26.484378 26.48438,-26.484378 h 105.92968 c 14.625,0 26.48438,11.859375 26.48438,26.484378 V 185.29625 c 0,4.875 3.95312,8.82812 8.82812,8.82812 h 17.65235 c 4.875,0 8.82812,-3.95312 8.82812,-8.82812 V 35.225938 c 0,-29.2499982 -23.71094,-52.964842 -52.96484,-52.964842 H 217.15593 c -29.25391,0 -52.96484,23.7148438 -52.96484,52.964842 V 185.29625 c 0,4.875 3.95312,8.82812 8.82812,8.82812 h 17.65235 c 4.875,0 8.82812,-3.95312 8.82812,-8.82812 z m 0,0" />
  </g>
</svg>
